<?xml version="1.0" encoding="UTF-8"?>
<svg version="1.1" xmlns="http://www.w3.org/2000/svg" width="352" height="364">
<path d="M0 0 C116.16 0 232.32 0 352 0 C352 120.12 352 240.24 352 364 C235.84 364 119.68 364 0 364 C0 243.88 0 123.76 0 0 Z " fill="#1C1C1C" transform="translate(0,0)"/>
<path d="M0 0 C1.26863388 -0.01354271 1.26863388 -0.01354271 2.56289673 -0.02735901 C4.34983794 -0.04184672 6.13683202 -0.05074457 7.92382812 -0.05444336 C10.64805102 -0.06633635 13.37000513 -0.1155303 16.09375 -0.16601562 C17.83332232 -0.17548104 19.57290851 -0.18271551 21.3125 -0.1875 C22.52684219 -0.21679848 22.52684219 -0.21679848 23.76571655 -0.24668884 C27.91296108 -0.21384504 30.50617618 0.12636112 33.78759766 2.78100586 C37.44387629 6.56682081 37.42634274 8.4032738 37.50352478 13.57383728 C37.5196233 14.53868596 37.5196233 14.53868596 37.53604704 15.52302653 C37.570601 17.6884025 37.59779948 19.8538041 37.62475586 22.01928711 C37.64738388 23.56822041 37.67025237 25.11715021 37.69334412 26.66607666 C37.89575261 40.82942167 38.00758995 54.99403785 38.09656429 69.15849972 C38.15767706 78.67960129 38.24518031 88.19891515 38.40014648 97.71899414 C38.53537132 106.02645281 38.62098881 114.33267507 38.64697176 122.64122111 C38.66231534 127.03659014 38.70155481 131.42867993 38.79984856 135.82304192 C38.89155717 139.96522697 38.91606091 144.10259501 38.89086342 148.2456665 C38.89310331 149.75870068 38.91900932 151.27193092 38.9713974 152.78405952 C39.33538697 163.86142231 39.33538697 163.86142231 35.90930676 168.06326604 C32.08771474 171.73460533 27.77544857 174.58505668 23.2890625 177.37109375 C21.81542933 178.37486937 20.34242965 179.37957879 18.87109375 180.38671875 C17.62337987 181.14615481 16.36690383 181.89140589 15.1015625 182.62109375 C14.41304199 183.02312012 13.72452148 183.42514648 13.01513672 183.83935547 C4.85015847 188.42861746 -6.17181136 194.37109375 -15.7109375 194.37109375 C-15.78098572 170.07569684 -15.83390516 145.78031505 -15.86637402 121.48483753 C-15.88184986 110.20429422 -15.90295314 98.92381361 -15.93725586 87.64331055 C-15.96713619 77.81243956 -15.98650728 67.98161398 -15.99320298 58.15069884 C-15.99711755 52.94420259 -16.0063323 47.73783626 -16.02812767 42.53138161 C-16.04847119 37.63210664 -16.0547756 32.73301528 -16.05026054 27.83370209 C-16.0510867 26.03456564 -16.05706503 24.23542312 -16.06855392 22.43632317 C-16.08346474 19.98119238 -16.07989645 17.52675613 -16.07170105 15.0716095 C-16.08043957 14.35856637 -16.0891781 13.64552325 -16.09818143 12.91087276 C-16.05886082 8.55727225 -15.33523355 5.85760096 -12.7109375 2.37109375 C-9.06123721 -0.49280926 -4.43572988 0.02923698 0 0 Z " fill="#E0E0E0" transform="translate(199.7109375,98.62890625)"/>
<path d="M0 0 C0.80136383 -0.0066568 1.60272766 -0.0133136 2.42837524 -0.02017212 C4.12117219 -0.03028126 5.81400884 -0.03498968 7.50683594 -0.03466797 C10.08596062 -0.03903608 12.66336597 -0.0753574 15.2421875 -0.11328125 C16.89061918 -0.11915098 18.53905894 -0.12311933 20.1875 -0.125 C21.33622086 -0.14655655 21.33622086 -0.14655655 22.50814819 -0.16854858 C27.68614102 -0.12474688 30.62209081 0.91670454 34.7265625 4.3359375 C37.01276121 7.76523557 36.97428823 8.98111766 36.96707153 13.01164246 C36.96982086 14.19374802 36.97257019 15.37585358 36.97540283 16.59378052 C36.96821228 17.89209808 36.96102173 19.19041565 36.95361328 20.52807617 C36.95304919 21.9078114 36.95336569 23.28754723 36.95449829 24.6672821 C36.95507289 28.41497126 36.94330131 32.16253279 36.92935038 35.91019225 C36.91686083 39.82597061 36.91567392 43.74175179 36.91329956 47.657547 C36.90707956 55.07357891 36.89066172 62.48955196 36.87060058 69.90555793 C36.84825774 78.34802208 36.83725222 86.79048902 36.82720971 95.23297536 C36.80629594 112.60066347 36.77110987 129.96829427 36.7265625 147.3359375 C25.68747425 151.09421578 14.73294022 151.64402302 3.18383789 151.54174805 C1.00330256 151.52313221 -1.17681422 151.52124157 -3.35742188 151.52148438 C-13.97714285 151.48408482 -13.97714285 151.48408482 -16.2734375 150.3359375 C-16.36690299 131.92510237 -16.43742752 113.51432887 -16.48068619 95.10330772 C-16.50130634 86.55463095 -16.52941641 78.00610165 -16.57519531 69.45751953 C-16.61507991 62.00606138 -16.64087429 54.55471003 -16.64979148 47.1031481 C-16.65500352 43.15801053 -16.66724202 39.21317848 -16.69635773 35.26813889 C-16.72355269 31.55317522 -16.7318744 27.83864231 -16.72586823 24.12358856 C-16.72748953 22.11365764 -16.74899096 20.1037734 -16.77111816 18.09396362 C-16.72086315 7.09860801 -16.72086315 7.09860801 -12.2734375 2.3359375 C-8.70689693 -0.45076777 -4.33917355 0.01254441 0 0 Z " fill="#A7A7A7" transform="translate(131.2734375,150.6640625)"/>
<path d="M0 0 C-0.56490962 8.89297761 -1.55535809 17.63597922 -2.9375 26.4375 C-3.10701172 27.56865234 -3.27652344 28.69980469 -3.45117188 29.86523438 C-3.62068359 30.96029297 -3.79019531 32.05535156 -3.96484375 33.18359375 C-4.1155835 34.15868896 -4.26632324 35.13378418 -4.42163086 36.13842773 C-5.040697 39.20135481 -5.99839346 42.04284011 -7 45 C-7.43085374 47.63299509 -7.81227815 50.22968077 -8.125 52.875 C-8.21136719 53.56335938 -8.29773438 54.25171875 -8.38671875 54.9609375 C-8.59659566 56.63995275 -8.79907087 58.31989048 -9 60 C-13 60 -13 60 -14.52734375 58.64453125 C-14.99269531 58.03996094 -15.45804687 57.43539062 -15.9375 56.8125 C-16.44925781 56.17828125 -16.96101563 55.5440625 -17.48828125 54.890625 C-17.98714844 54.26671875 -18.48601562 53.6428125 -19 53 C-21.47859029 50.1020938 -21.47859029 50.1020938 -24 48 C-27.98209546 47.56643183 -27.98209546 47.56643183 -30.2265625 49.90625 C-31.01804687 50.7621875 -31.80953125 51.618125 -32.625 52.5 C-37.43844987 57.50373267 -42.46673757 61.81817955 -48 66 C-48.82886719 66.63421875 -49.65773438 67.2684375 -50.51171875 67.921875 C-55.91095973 71.95718216 -61.48521265 75.66241564 -67.1875 79.25 C-67.84057129 79.66233887 -68.49364258 80.07467773 -69.16650391 80.49951172 C-81.24944061 88 -81.24944061 88 -85 88 C-85 88.66 -85 89.32 -85 90 C-108.43066802 99.53896761 -108.43066802 99.53896761 -114 99 C-114 99.66 -114 100.32 -114 101 C-145.45415354 108.74140457 -177.53472836 109.51555336 -209 101 C-209 100.34 -209 99.68 -209 99 C-210.31355469 98.89429688 -211.62710938 98.78859375 -212.98046875 98.6796875 C-217.75261215 98.14127273 -221.87048485 96.9085018 -226.3125 95.125 C-227.07667236 94.82110352 -227.84084473 94.51720703 -228.62817383 94.20410156 C-244.04572473 87.85285122 -257.88323629 79.21726857 -271 69 C-272.33125578 67.99723591 -273.66352862 66.9958022 -275 66 C-274.505 65.01 -274.505 65.01 -274 64 C-273.17757812 64.53109375 -272.35515625 65.0621875 -271.5078125 65.609375 C-265.67856279 69.3183393 -260.0652684 72.70952854 -253.51171875 75.015625 C-251.31443209 75.87677001 -249.29912101 76.84540781 -247.203125 77.921875 C-208.04025162 97.76573626 -161.62941465 95.01385793 -121 82 C-117.57375872 80.83761592 -114.29822363 79.48645969 -111 78 C-110.30616211 77.69046387 -109.61232422 77.38092773 -108.89746094 77.06201172 C-99.31889764 72.76131166 -90.37037533 68.40620783 -82 62 C-80.43914106 60.95587593 -78.87656582 59.9143141 -77.3125 58.875 C-58.1993751 45.81553607 -58.1993751 45.81553607 -45 28 C-49.48713568 23.4103663 -53.98568224 19.01145421 -59 15 C-58.67 14.01 -58.34 13.02 -58 12 C-57.18402344 11.84144531 -56.36804688 11.68289062 -55.52734375 11.51953125 C-47.29445063 9.89803652 -39.08026096 8.1934998 -30.875 6.4375 C-29.87976318 6.22778564 -28.88452637 6.01807129 -27.85913086 5.80200195 C-26.91303955 5.59792725 -25.96694824 5.39385254 -24.9921875 5.18359375 C-23.72930908 4.91373657 -23.72930908 4.91373657 -22.44091797 4.63842773 C-19.85187606 3.96125784 -17.47218869 3.0182781 -15 2 C-13.34389811 1.58079921 -11.67615839 1.20499368 -10 0.875 C-9.175 0.70742187 -8.35 0.53984375 -7.5 0.3671875 C-4.96066337 -0.00577757 -2.56241182 -0.02509028 0 0 Z " fill="#DDDDDD" transform="translate(314,223)"/>
<path d="M0 0 C0.87173859 -0.00524185 1.74347717 -0.0104837 2.64163208 -0.0158844 C4.48584936 -0.02230748 6.33010759 -0.02096389 8.17431641 -0.01245117 C10.99065584 -0.00395799 13.80495565 -0.03266994 16.62109375 -0.06445312 C18.41406189 -0.0660657 20.20703362 -0.06548652 22 -0.0625 C22.83973358 -0.07373398 23.67946716 -0.08496796 24.54464722 -0.09654236 C28.53840062 -0.04916419 30.62104019 0.11332252 34.07861328 2.27709961 C38.26226484 6.66908847 38.41233199 9.87950681 38.35986328 15.66870117 C38.36015533 16.50794632 38.36044739 17.34719147 38.36074829 18.21186829 C38.35935421 20.98770462 38.34378933 23.76327302 38.328125 26.5390625 C38.32439515 28.46291456 38.32154805 30.38676853 38.31954956 32.31062317 C38.31191092 37.37577554 38.29226041 42.44081333 38.2701416 47.50592041 C38.24968818 52.67385305 38.24054892 57.84180419 38.23046875 63.00976562 C38.20901476 73.15109203 38.17487599 83.29233336 38.1328125 93.43359375 C36.70814806 93.2900339 35.2839109 93.14223036 33.85986328 92.99267578 C33.06669708 92.91083038 32.27353088 92.82898499 31.45632935 92.74465942 C18.77260445 91.04659924 6.4166561 84.11751497 -4.8671875 78.43359375 C-4.8671875 77.77359375 -4.8671875 77.11359375 -4.8671875 76.43359375 C-5.5890625 76.35109375 -6.3109375 76.26859375 -7.0546875 76.18359375 C-10.5672288 75.24691607 -12.28455196 73.98925873 -14.8671875 71.43359375 C-15.48864746 68.59449768 -15.48864746 68.59449768 -15.48242188 65.27563477 C-15.49172729 64.03076797 -15.50103271 62.78590118 -15.51062012 61.50331116 C-15.49503149 60.14802924 -15.47844627 58.79275847 -15.4609375 57.4375 C-15.45922561 56.04272057 -15.45929288 54.64793793 -15.46105957 53.25315857 C-15.45940718 50.33178871 -15.4407286 47.41118702 -15.40917969 44.48999023 C-15.36953798 40.75289512 -15.36513041 37.0168074 -15.37264252 33.27954197 C-15.37571855 30.39949888 -15.36356883 27.51968054 -15.34651184 24.63969231 C-15.33949972 23.26225127 -15.33635513 21.88478475 -15.33720398 20.50732613 C-15.33539797 18.57846174 -15.31169983 16.64965574 -15.28710938 14.72094727 C-15.27869019 13.62492691 -15.270271 12.52890656 -15.26159668 11.39967346 C-14.00953263 1.98376232 -8.48764517 -0.02952973 0 0 Z " fill="#7C7C79" transform="translate(61.8671875,203.56640625)"/>
<path d="M0 0 C3.80180996 0.95045249 5.96021371 1.60016872 9 4 C10.25 7.4375 10.25 7.4375 11 11 C11.20625 11.804375 11.4125 12.60875 11.625 13.4375 C11.74875 13.953125 11.8725 14.46875 12 15 C17.05381346 16.00589546 21.93111253 16.21632395 27.0625 16.25 C28.24682617 16.2809375 28.24682617 16.2809375 29.45507812 16.3125 C34.14370888 16.34394094 37.19113307 16.03837095 41 13 C42.78809144 10.48342686 43.92135872 8.22543833 44.9375 5.3125 C46 3 46 3 47.9375 1.6875 C50 1 50 1 53 1 C53 26.08 53 51.16 53 77 C49.69514552 78.65242724 47.69408457 79.38151579 44.1875 80 C41.27994481 80.51772048 38.52951823 81.13831164 35.69140625 81.97265625 C31.72585752 83.07629574 27.80713906 83.7819918 23.75 84.4375 C17.77683371 85.43767921 11.99989583 86.67350128 6.19921875 88.44921875 C4 89 4 89 0 89 C0 59.63 0 30.26 0 0 Z " fill="#FAFAFA" transform="translate(252,133)"/>
<path d="M0 0 C2.14576637 -0.02685938 4.29162645 -0.04633088 6.4375 -0.0625 C7.63246094 -0.07410156 8.82742188 -0.08570312 10.05859375 -0.09765625 C13 0 13 0 14 1 C14.07226502 2.85287502 14.0838122 4.70833878 14.0625 6.5625 C14.05347656 7.57441406 14.04445313 8.58632813 14.03515625 9.62890625 C14.02355469 10.41136719 14.01195312 11.19382812 14 12 C14.969375 12.061875 15.93875 12.12375 16.9375 12.1875 C24.90217357 13.37817847 30.57754535 18.08041381 35.78515625 23.9375 C37.29703984 26.50429915 37.38111224 28.06688303 37 31 C33.9404223 34.0595777 30.16337318 35.02376077 26 36 C22.9375 35.6875 22.9375 35.6875 21 35 C20.79375 34.05125 20.5875 33.1025 20.375 32.125 C19.29166667 28.70833333 19.29166667 28.70833333 15.875 27.625 C14.92625 27.41875 13.9775 27.2125 13 27 C13 26.34 13 25.68 13 25 C4.35367608 24.98378392 4.35367608 24.98378392 -3.75 27.5 C-6.94486078 31.04984531 -6.98012003 34.34808667 -7 39 C-0.74319509 42.25353855 4.83245013 44.33822496 11.8125 45.375 C21.12760444 46.95007994 29.29344954 50.12987514 36 57 C39.4421554 62.73692567 39.95995306 68.3980587 39 75 C36.53471119 82.4274727 32.77524329 87.43911732 25.79296875 91.18359375 C21.64712675 93.17057275 18.65367527 94.22082466 14 94 C14.01160156 94.78246094 14.02320313 95.56492187 14.03515625 96.37109375 C14.04417969 97.38300781 14.05320312 98.39492187 14.0625 99.4375 C14.07410156 100.44683594 14.08570313 101.45617187 14.09765625 102.49609375 C14 105 14 105 13 106 C10.81360547 106.07258946 8.62499611 106.08373783 6.4375 106.0625 C5.23996094 106.05347656 4.04242188 106.04445313 2.80859375 106.03515625 C1.41833984 106.01775391 1.41833984 106.01775391 0 106 C-0.33 102.37 -0.66 98.74 -1 95 C-2.918125 94.7215625 -2.918125 94.7215625 -4.875 94.4375 C-12.22478349 92.79133398 -18.51812086 88.35996042 -23.0625 82.375 C-24.76786926 79.40435678 -25.69303102 77.37665875 -26 74 C-20.63809899 71.38592128 -15.96564796 69.50771472 -10 69 C-8 72 -8 72 -8 76 C-6.576875 76.4640625 -6.576875 76.4640625 -5.125 76.9375 C-2 78 -2 78 0 79 C2.47178874 79.12445775 4.90311169 79.1851592 7.375 79.1875 C8.04789062 79.19974609 8.72078125 79.21199219 9.4140625 79.22460938 C13.09035658 79.23546457 15.93896734 79.14875445 19 77 C20.61318837 73.77362326 20.57577198 70.48931696 20 67 C15.33860749 61.05270611 5.9260187 60.32750335 -1.125 59.0625 C-9.02169357 57.52076459 -16.16396624 54.69604675 -21 48 C-24.59728366 41.67750145 -25.23531945 34.5662701 -23.34375 27.57421875 C-20.64018955 20.64051845 -16.10652963 16.31196991 -9.4375 13.125 C-6 12 -6 12 0 12 C0 8.04 0 4.08 0 0 Z " fill="#F4F4F4" transform="translate(272,32)"/>
<path d="M0 0 C0.67804687 0.37511719 1.35609375 0.75023437 2.0546875 1.13671875 C8.30236091 4.5720738 14.60337604 7.85192329 21 11 C22.20881551 11.60320135 23.4172329 12.2072022 24.625 12.8125 C25.40875 13.204375 26.1925 13.59625 27 14 C26.67 15.65 26.34 17.3 26 19 C20.53310102 16.97816968 16.09855726 13.89986058 11.3125 10.625 C10.44560547 10.0475 9.57871094 9.47 8.68554688 8.875 C7.85732422 8.31039063 7.02910156 7.74578125 6.17578125 7.1640625 C5.42208252 6.65311035 4.66838379 6.1421582 3.8918457 5.61572266 C1.86809011 3.88734293 1.00137431 2.44206976 0 0 Z " fill="#C7C7C7" transform="translate(39,287)"/>
<path d="M0 0 C4.62 0 9.24 0 14 0 C14 4.62 14 9.24 14 14 C13.34 13.01 12.68 12.02 12 11 C10.40899579 8.90415791 8.75353794 6.97273018 7 5 C6.34 5 5.68 5 5 5 C4.731875 4.360625 4.46375 3.72125 4.1875 3.0625 C3.11332248 0.66868314 3.11332248 0.66868314 0 0 Z " fill="#000000" transform="translate(338,0)"/>
<path d="M0 0 C0.33 0 0.66 0 1 0 C1 4.62 1 9.24 1 14 C-3.62 14 -8.24 14 -13 14 C-12.01 13.34 -11.02 12.68 -10 12 C-3.50311086 7.10355124 -3.50311086 7.10355124 0 0 Z " fill="#000000" transform="translate(351,350)"/>
<path d="M0 0 C0.99 1.485 0.99 1.485 2 3 C6.89644876 9.49688914 6.89644876 9.49688914 14 13 C14 13.33 14 13.66 14 14 C9.38 14 4.76 14 0 14 C0 9.38 0 4.76 0 0 Z " fill="#000000" transform="translate(0,350)"/>
<path d="M0 0 C4.62 0 9.24 0 14 0 C13.01 0.66 12.02 1.32 11 2 C4.50311086 6.89644876 4.50311086 6.89644876 1 14 C0.67 14 0.34 14 0 14 C0 9.38 0 4.76 0 0 Z " fill="#000000" transform="translate(0,0)"/>
<path d="M0 0 C3.3 0.66 6.6 1.32 10 2 C9.34 3.98 8.68 5.96 8 8 C4.22454612 6.90931332 1.52956528 6.0916909 -1 3 C-0.67 2.01 -0.34 1.02 0 0 Z " fill="#CDCDCD" transform="translate(65,302)"/>
<path d="M0 0 C2.97 0.495 2.97 0.495 6 1 C6 1.66 6 2.32 6 3 C5.34 3 4.68 3 4 3 C4 3.66 4 4.32 4 5 C2.68 5 1.36 5 0 5 C-0.33 4.01 -0.66 3.02 -1 2 C-0.67 1.34 -0.34 0.68 0 0 Z " fill="#DEDEDE" transform="translate(65,302)"/>
<path d="M0 0 C3.63 1.98 7.26 3.96 11 6 C10.01 6.66 9.02 7.32 8 8 C6.66102417 7.04956626 5.32894573 6.08940853 4 5.125 C3.2575 4.59132813 2.515 4.05765625 1.75 3.5078125 C1.1725 3.01023437 0.595 2.51265625 0 2 C0 1.34 0 0.68 0 0 Z " fill="#8F8F8F" transform="translate(39,287)"/>
</svg>
